<svg xmlns="http://www.w3.org/2000/svg" viewBox="0 0 500 500" width="100%" height="100%">
    <!-- Dark Charcoal Circle Body -->
    <circle cx="250" cy="250" r="242" fill="#323235"/>
    
    <!-- Double White Outer & Inner Rings -->
    <circle cx="250" cy="250" r="232" fill="none" stroke="#ffffff" stroke-width="8"/>
    <circle cx="250" cy="250" r="212" fill="none" stroke="#ffffff" stroke-width="4"/>

    <!-- Vector Word 'Coffee' -->
    <g fill="none" stroke="#ffffff" stroke-width="7" stroke-linecap="round" stroke-linejoin="round">
        <path d="M 175 160 C 152 160 142 175 142 195 C 142 215 152 230 175 230"/>
        <circle cx="196" cy="204" r="14"/>
        <path d="M 224 228 L 224 172 C 224 163 232 160 238 160 M 218 184 L 232 184"/>
        <path d="M 248 228 L 248 172 C 248 163 256 160 262 160 M 242 184 L 256 184"/>
        <path d="M 272 204 L 292 204 C 292 188 282 185 272 190 C 262 195 266 226 290 225"/>
        <path d="M 302 204 L 322 204 C 322 188 312 185 302 190 C 292 195 296 226 320 225"/>
    </g>

    <!-- Vector 'L' -->
    <path d="M 125 140 L 125 315 Q 125 342 152 342 L 182 342" fill="none" stroke="#ffffff" stroke-width="15" stroke-linecap="round"/>

    <!-- Vector 'a' -->
    <circle cx="225" cy="292" r="44" fill="none" stroke="#ffffff" stroke-width="15"/>
    <path d="M 269 248 L 269 342" stroke="#ffffff" stroke-width="15" stroke-linecap="round"/>

    <!-- Vector 'b' -->
    <path d="M 322 140 L 322 342" stroke="#ffffff" stroke-width="15" stroke-linecap="round"/>

    <!-- Coffee Cup (bowl of 'b') -->
    <circle cx="372" cy="286" r="48" fill="#42200a" stroke="#ffffff" stroke-width="13"/>
    <circle cx="365" cy="280" r="36" fill="#301606"/>
    <ellipse cx="365" cy="280" rx="30" ry="26" fill="none" stroke="#a6622b" stroke-width="4" opacity="0.8"/>
    
    <circle cx="345" cy="270" r="5.5" fill="#d49553"/>
    <circle cx="354" cy="262" r="4" fill="#e3ab6e"/>
    <circle cx="338" cy="284" r="6" fill="#d49553"/>
    <circle cx="346" cy="296" r="4.5" fill="#e3ab6e"/>
    <circle cx="358" cy="305" r="5" fill="#d49553"/>
    <circle cx="372" cy="308" r="4" fill="#e3ab6e"/>

    <!-- Cup Handle -->
    <path d="M 420 280 C 448 280, 448 302, 424 310" fill="none" stroke="#ffffff" stroke-width="10" stroke-linecap="round"/>
</svg>
